<?xml version="1.0" encoding="utf-8"?>
<!-- Generator: Adobe Illustrator 18.0.0, SVG Export Plug-In . SVG Version: 6.00 Build 0)  -->
<!DOCTYPE svg PUBLIC "-//W3C//DTD SVG 1.1//EN" "http://www.w3.org/Graphics/SVG/1.1/DTD/svg11.dtd">
<svg version="1.1" xmlns="http://www.w3.org/2000/svg" xmlns:xlink="http://www.w3.org/1999/xlink" x="0px" y="0px"
	 viewBox="0 0 300 300" enable-background="new 0 0 300 300" xml:space="preserve">
<g id="Layer_1">
</g>
<g id="Layer_2">
	<g>
		<path fill="#77A5CF" d="M286.6,49.5c-12.8-32.1-49.1-47.8-81.2-35.1s-47.8,49.1-35.1,81.2c0.8,2,1.7,3.9,2.6,5.7l-37.6,52.3
			c-4-0.4-8-0.4-12-0.1L107.8,121c5.6-6.7,9.7-14.9,11.6-24.1c6.3-30.2-13-59.8-43.2-66.1c-30.2-6.3-59.8,13-66.1,43.2
			c-6.3,30.2,13,59.8,43.2,66.1c4.3,0.9,8.5,1.2,12.7,1.1l15,31.7c-15.3,15-23.3,36.9-19.6,59.7c6.1,37.2,41.2,62.5,78.4,56.5
			c37.2-6.1,62.5-41.2,56.5-78.4c-1.5-8.9-4.6-17.1-9-24.4l37-51.3c9,0.6,18.3-0.6,27.3-4.2C283.7,118,299.4,81.6,286.6,49.5z"/>
		<path fill="#38569E" d="M273.8,54.6c-9.9-25-38.3-37.3-63.3-27.3c-25,9.9-37.3,38.3-27.3,63.3c1.8,4.4,4.1,8.5,6.9,12.1L141.6,170
			c-6.8-1.7-14-2-21.3-0.8c-1,0.2-1.9,0.4-2.8,0.6l-25.2-53.2c6.5-5.7,11.3-13.5,13.2-22.6c4.7-22.5-9.7-44.5-32.2-49.3
			C50.8,40,28.8,54.4,24.1,76.9c-4.7,22.5,9.7,44.5,32.2,49.3c5.5,1.2,11,1.1,16.2,0.2l24.9,52.6c-15.5,11.5-24.2,30.9-20.9,51.3
			c4.7,29,32,48.6,61,43.9c29-4.7,48.6-32,43.9-61c-1.7-10.2-6.1-19.1-12.4-26.3l48.1-66.8c9.5,2.3,19.7,1.8,29.5-2
			C271.5,108,283.7,79.6,273.8,54.6z"/>
		<g>
			<circle fill="#E0E0E0" cx="228.5" cy="72.6" r="32.1"/>
			<circle fill="#E0E0E0" cx="64.8" cy="85.5" r="26.7"/>
			<circle fill="#E0E0E0" cx="128.9" cy="221.7" r="34.2"/>
		</g>
	</g>
</g>
</svg>
